<?xml version="1.0" encoding="UTF-8" standalone="no"?>
<!-- Created with Inkscape (http://www.inkscape.org/) -->

<svg
   width="129.823mm"
   height="129.823mm"
   viewBox="0 0 129.823 129.823"
   version="1.1"
   id="svg1422"
   xml:space="preserve"
   sodipodi:docname="tomato.svg"
   inkscape:version="1.4.4 (dcaf3e7d9e, 2026-05-05)"
   inkscape:export-filename="tomato.png"
   inkscape:export-xdpi="100.17332"
   inkscape:export-ydpi="100.17332"
   xmlns:inkscape="http://www.inkscape.org/namespaces/inkscape"
   xmlns:sodipodi="http://sodipodi.sourceforge.net/DTD/sodipodi-0.dtd"
   xmlns="http://www.w3.org/2000/svg"
   xmlns:svg="http://www.w3.org/2000/svg"><sodipodi:namedview
     id="namedview1"
     pagecolor="#ffffff"
     bordercolor="#000000"
     borderopacity="0.25"
     inkscape:showpageshadow="2"
     inkscape:pageopacity="0.0"
     inkscape:pagecheckerboard="0"
     inkscape:deskcolor="#d1d1d1"
     inkscape:document-units="mm"
     inkscape:zoom="1.630425"
     inkscape:cx="270.78829"
     inkscape:cy="231.22805"
     inkscape:window-width="2368"
     inkscape:window-height="1283"
     inkscape:window-x="15"
     inkscape:window-y="50"
     inkscape:window-maximized="1"
     inkscape:current-layer="layer4" /><defs
     id="defs1419" /><g
     inkscape:groupmode="layer"
     id="layer5"
     inkscape:label="colors"
     style="display:inline"><path
       style="display:inline;fill:#329675;fill-opacity:1;stroke:none;stroke-width:1.64525;stroke-linecap:round;stroke-linejoin:round;stroke-dasharray:none"
       d="m 30.275123,15.866403 c 0.237849,0.356769 12.546378,7.373224 12.546378,7.373224 l -5.113697,3.389305 -7.78945,8.324608 0.05946,1.724383 c 0,0 6.956992,-2.794689 7.254304,-2.913612 0.297311,-0.118923 7.01646,-1.129769 7.01646,-1.129769 l 8.205674,-1.962229 1.902773,5.58938 3.983913,6.00561 3.567693,-4.994765 2.200074,-7.432686 9.157073,2.735228 c 0,0 6.77861,0.416231 6.956997,0.654076 0.178382,0.237846 5.410988,2.37846 5.410988,2.37846 l -0.951381,-3.805535 -5.886687,-6.00561 -4.340687,-2.37846 4.935305,-3.567689 7.492143,-4.162305 -6.005611,-2.259536 -7.67053,0.356769 -7.135384,2.913613 -3.270381,2.556844 -0.713533,-5.767764 1.605452,-5.1731514 1.843316,-2.3189972 -2.318999,-3.5082282 -5.410993,-2.08114997 -2.200075,2.85414967 -1.664924,6.8975331 -0.178387,6.42184 c 0,0 0.118925,3.210922 -0.178387,2.794692 -0.297296,-0.416232 -5.827228,-4.340689 -5.827228,-4.340689 l -9.573293,-1.605461 z"
       id="path16"
       transform="translate(6.6178139,4.0353366)" /><path
       style="display:inline;fill:#c44f57;fill-opacity:1;stroke:none;stroke-width:1.64525;stroke-linecap:round;stroke-linejoin:round;stroke-dasharray:none"
       d="m 38.774628,20.878847 4.07842,2.648874 -7.694346,4.540927 -5.339799,8.030713 6.264805,-1.345459 7.526157,-2.270464 8.282988,-1.850007 2.732971,6.180707 3.489787,5.171611 c 0,0 1.387501,-1.807962 1.850006,-2.270464 0.462496,-0.462501 2.648874,-5.255703 2.943196,-5.718204 0.294322,-0.462501 1.093189,-3.826151 1.093189,-3.826151 l 11.562537,2.775011 4.49888,0.714775 5.045473,1.639779 -0.798868,-4.625018 -4.919335,-4.709109 c 0,0 -5.718202,-2.396601 -5.297742,-2.648875 0.420454,-0.252274 1.976139,-1.471597 2.312511,-1.513643 0.336357,-0.04205 8.53526,0.336365 8.913668,0.336365 0.378409,0 6.93753,1.807963 7.105714,1.807963 0.168173,0 6.853424,4.456835 6.853424,4.456835 l 5.886386,6.138661 3.3216,4.246608 5.97049,12.571641 c 0,0 0.54658,5.550022 0.50454,5.718204 -0.0421,0.168183 0.58864,10.763679 0.58864,10.763679 l -1.05114,7.442076 -2.3125,7.610256 -5.38185,12.445502 -6.47503,8.36708 -9.25002,7.94663 -16.776214,7.6523 -12.403456,1.17728 -11.100047,-0.12614 c 0,0 -8.787528,-1.72387 -9.165937,-1.72387 -0.378408,0 -10.090949,-3.95229 -10.427317,-4.07843 -0.336362,-0.12613 -9.754582,-6.26479 -9.754582,-6.26479 L 11.613153,96.897326 5.726762,85.671151 1.4381117,71.249502 0.68128982,61.116507 3.4563016,48.839185 9.048366,37.739141 l 5.465932,-6.096615 9.838679,-7.105709 c 0,0 6.97957,-2.690921 7.568208,-2.690921 0.588633,0 6.853443,-0.967049 6.853443,-0.967049 z"
       id="path17"
       transform="translate(6.6178139,4.0353366)" /></g><g
     inkscape:groupmode="layer"
     id="layer3"
     inkscape:label="shadows"
     style="display:inline"><path
       style="fill:#246262;fill-opacity:1;stroke:none;stroke-width:1.64525;stroke-linecap:round;stroke-linejoin:round;stroke-dasharray:none"
       d="m 52.513717,29.245238 c 0.178387,-0.08919 1.278432,-2.467653 1.664929,-1.278423 0.386498,1.189229 4.370411,11.803106 4.102838,12.992335 l -3.537959,-3.389304 z"
       id="path6"
       sodipodi:nodetypes="csccc"
       transform="translate(6.6178139,4.0353366)" /><path
       style="fill:#246262;fill-opacity:1;stroke:none;stroke-width:1.64525;stroke-linecap:round;stroke-linejoin:round;stroke-dasharray:none"
       d="m 63.335714,29.39389 c 0,-0.148652 0.772994,-1.694652 0.297296,-2.051421 -0.475683,-0.356768 3.597431,1.768979 7.611083,2.408191 4.013652,0.639211 9.528703,2.155479 10.524675,3.612285 0.995982,1.456806 -5.827214,-0.654076 -5.827214,-0.654076 z"
       id="path7"
       transform="translate(6.6178139,4.0353366)" /><path
       style="fill:#246262;fill-opacity:1;stroke:none;stroke-width:1.64525;stroke-linecap:round;stroke-linejoin:round;stroke-dasharray:none"
       d="m 82.422848,29.899313 c -1.055439,-0.609479 -6.540757,-3.746073 -8.532721,-4.17717 -1.991964,-0.431095 -5.619119,-1.531133 -5.663704,-1.813575 -0.04462,-0.282442 4.920433,-1.129768 6.03534,-0.698672 1.114907,0.431096 6.73401,4.117708 6.73401,4.117708 z"
       id="path8"
       transform="translate(6.6178139,4.0353366)" /><path
       style="fill:#246262;fill-opacity:1;stroke:none;stroke-width:1.64525;stroke-linecap:round;stroke-linejoin:round;stroke-dasharray:none"
       d="m 62.908813,22.413512 c 0,0 6.09661,-5.592067 9.355145,-6.13866 3.258535,-0.546593 9.165939,-1.850008 12.971071,-1.051141 3.805127,0.798867 -6.327868,-1.87103 -6.327868,-1.87103 0,0 -8.976737,1.324436 -9.144921,1.450574 -0.168173,0.126136 -7.86253,4.769551 -7.86253,4.769551 z"
       id="path9"
       sodipodi:nodetypes="csscscc"
       transform="translate(6.6178139,4.0353366)" /><path
       style="fill:#246262;fill-opacity:1;stroke:none;stroke-width:1.64525;stroke-linecap:round;stroke-linejoin:round;stroke-dasharray:none"
       d="m 53.480085,20.237651 c 0.07357,0.14716 1.009087,2.943194 1.282391,2.564783 0.273288,-0.378411 0.903972,-1.482107 0.903972,-1.482107 0,0 1.103703,-5.15059 0.998583,-6.937529 -0.105114,-1.786939 0.988075,-9.3551516 1.597736,-9.1659456 0.609661,0.189205 2.039208,1.177278 2.37558,1.030118 0.336358,-0.14716 -1.08267,-0.903981 -1.08267,-0.903981 0,0 -1.892057,-1.534665 -1.5557,-2.4859485 0.336373,-0.951283 2.258604,-0.7411103 3.410665,-0.2951455 1.152061,0.4459596 1.196662,-0.08176 1.033152,-0.1263555 -0.163525,-0.044616 -4.682599,-1.256124 -4.682599,-1.256124 l -1.323017,1.5162658 -2.408195,7.4029563 v 8.711108 z"
       id="path10"
       transform="translate(6.6178139,4.0353366)" /><path
       style="fill:#246262;fill-opacity:1;stroke:none;stroke-width:1.64525;stroke-linecap:round;stroke-linejoin:round;stroke-dasharray:none"
       d="m 53.658358,20.548994 c -0.178382,-0.0446 -6.390516,-4.000847 -12.15077,-4.337212 -5.760253,-0.336363 -11.100041,-0.210227 -11.100041,-0.210227 l 6.517064,-2.31251 7.904581,0.925004 5.339792,2.31251 2.859109,2.3966 z"
       id="path11"
       transform="translate(6.6178139,4.0353366)" /><path
       style="fill:#246262;fill-opacity:1;stroke:none;stroke-width:1.64525;stroke-linecap:round;stroke-linejoin:round;stroke-dasharray:none"
       d="m 43.356646,23.239627 c 0.118925,0 5.411009,0.654076 5.411009,0.654076 0,0 -12.219343,3.835266 -16.827608,11.297683 l -2.021688,0.862191 c 0,0 2.259537,-3.924458 2.259537,-4.073111 0,-0.148654 4.816381,-5.113689 5.143416,-5.321804 0.32704,-0.208115 6.035334,-3.419035 6.035334,-3.419035 z"
       id="path12"
       transform="translate(6.6178139,4.0353366)" /><path
       style="display:inline;fill:#8e3449;fill-opacity:1;stroke:none;stroke-width:1.64525;stroke-linecap:round;stroke-linejoin:round;stroke-dasharray:none"
       d="m 108.23398,39.084601 c 0,0 4.62503,15.430743 2.43865,24.512598 -2.18638,9.081854 -9.37618,46.166101 -50.664977,51.632021 0,0 -17.995513,1.34546 -31.702388,-6.30684 C 14.59839,101.27008 9.701452,93.701491 9.701452,93.701491 l 6.808339,9.751679 11.030107,9.72196 10.019263,4.28123 10.316564,2.70549 15.043758,0.89193 13.25991,-2.43792 12.784222,-5.411 10.643599,-8.91922 8.502996,-10.821995 5.58938,-12.546374 2.20007,-18.135754 c 0,0 -1.36761,-9.15707 -1.36761,-9.394916 0,-0.237845 -3.98392,-11.773374 -3.98392,-11.773374 z"
       id="path13"
       transform="translate(6.6178139,4.0353366)" /></g><g
     inkscape:groupmode="layer"
     id="layer4"
     inkscape:label="highlights"
     style="display:inline"><path
       style="display:inline;fill:#d88b90;fill-opacity:1;stroke:none;stroke-width:1.64525;stroke-linecap:round;stroke-linejoin:round;stroke-dasharray:none"
       d="m 24.689339,32.525484 c 0.126138,0.168183 1.051144,-0.210228 0.840914,1.681825 -0.21023,1.892052 -5.38184,7.357984 -5.928432,8.282988 -0.546592,0.925003 -4.70911,5.003428 -5.676161,7.063664 -0.967052,2.060235 -1.80796,3.489787 -2.775012,3.195467 -0.967046,-0.294319 -2.01819,-1.177277 0,-6.306843 2.01819,-5.129566 6.389476,-10.378164 10.048904,-12.739823 2.381881,-1.537179 3.489787,-1.177278 3.489787,-1.177278 z"
       id="path15"
       sodipodi:nodetypes="cssssssc"
       transform="translate(6.6178139,4.0353366)" /><path
       style="fill:#d88b90;fill-opacity:1;stroke:none;stroke-width:1.64525;stroke-linecap:round;stroke-linejoin:round;stroke-dasharray:none"
       d="M 1.774474,69.567677 C 2.0687957,68.09608 2.3631121,54.178979 9.090412,43.583483 15.817712,32.987985 23.343879,27.059554 29.692771,25.041364 36.041657,23.023174 40.792807,22.182261 40.792807,22.182261 L 36.6303,21.257257 c 0,0 -9.081857,2.31251 -9.250041,2.396601 -0.168184,0.08409 -11.730726,7.147755 -11.730726,7.147755 l -5.886391,6.306844 -3.15342,5.634113 -3.489788,7.820486 -2.0181899,7.231847 c 0,0 -0.16818378,9.376174 -0.084092,9.628448 0.084092,0.252273 0.7568218,2.144326 0.7568219,2.144326 z"
       id="path14"
       transform="translate(6.6178139,4.0353366)" /></g><g
     inkscape:groupmode="layer"
     id="layer1"
     inkscape:label="lineart"
     style="display:inline;stroke-width:3.175;stroke-dasharray:none"><path
       style="fill:none;stroke:#241f31;stroke-width:1.64525;stroke-linecap:round;stroke-linejoin:round;stroke-dasharray:none;stroke-opacity:1"
       d="m 62.74109,19.493554 c 0,0 -2.437918,-6.600227 2.378462,-12.2490684 0,0 0.773958,-4.7238641 -6.065068,-6.36238117 -5.708305,-1.3676126 -5.054225,18.84929457 -5.054225,18.84929457 0,0 -9.27599,-10.7625304 -24.379211,-3.924459 0.237849,0.535154 11.713916,5.946149 14.032915,7.729994 -0.237849,0.297307 -10.584147,2.616305 -13.795066,12.724759 0.11892,0.237845 6.830637,-2.534547 8.859761,-2.675768 1.620329,-0.08919 12.308527,-1.962229 13.735602,-3.567689 0.06928,0.194739 0.573828,6.501582 5.619305,11.715239 0,0 4.961381,-3.195467 5.550019,-11.940956 0.210229,0 7.610259,2.648874 11.856869,2.77501 4.246604,0.126138 8.619351,2.060236 11.100041,3.447742 0,0 -3.994333,-10.805725 -13.118231,-12.361413 0.967046,-0.546594 8.871627,-6.601163 13.875053,-7.862532 0,0 -12.192303,-7.7740154 -24.596226,3.702228 z"
       id="path1"
       sodipodi:nodetypes="ccsccccccccsc"
       transform="translate(6.6178139,4.0353366)" /><path
       style="fill:none;stroke:#241f31;stroke-width:1.64525;stroke-linecap:round;stroke-linejoin:round;stroke-dasharray:none;stroke-opacity:1"
       d="M 75.192033,22.458856 C 76.117039,21.954307 96.577414,16.340814 110.94646,43.101688 125.0604,69.387441 108.23989,120.9297 58.457881,120.9297 8.67586,120.9297 -4.0120307,70.697578 2.3690143,52.227156 7.288085,37.988532 16.686686,22.288921 39.430377,21.151577"
       id="path2"
       sodipodi:nodetypes="csssc"
       transform="translate(6.6178139,4.0353366)" /><circle
       style="fill:#241f31;fill-opacity:1;stroke:#241f31;stroke-width:1.64525;stroke-linecap:round;stroke-linejoin:round;stroke-dasharray:none;stroke-opacity:1"
       id="path3"
       cx="58.578789"
       cy="75.446815"
       r="3.9839196"
       transform="translate(6.6178139,4.0353366)" /><path
       style="fill:#241f31;fill-opacity:1;stroke:#241f31;stroke-width:1.64525;stroke-linecap:round;stroke-linejoin:round;stroke-dasharray:none;stroke-opacity:1"
       d="m 62.860015,74.019737 c 0.475699,-0.237844 29.671287,-20.573674 29.671287,-20.573674 0,0 0.728409,-1.79871 -1.263555,-1.57573 -0.482689,0.332502 -30.587354,19.841671 -30.587354,19.841671 z"
       id="path4"
       transform="translate(6.6178139,4.0353366)" /><path
       style="fill:#241f31;fill-opacity:1;stroke:#241f31;stroke-width:1.64525;stroke-linecap:round;stroke-linejoin:round;stroke-dasharray:none;stroke-opacity:1"
       d="M 56.686049,71.039274 42.306456,59.098317 c 0,0 -4.141489,-0.988072 -2.648874,3.153422 l 14.463696,12.172207 z"
       id="path5"
       transform="translate(6.6178139,4.0353366)" /></g></svg>
