<?xml version="1.0" encoding="UTF-8" standalone="no"?>
<!-- Created with Inkscape (http://www.inkscape.org/) -->

<svg
   width="129.823mm"
   height="129.823mm"
   viewBox="0 0 129.823 129.823"
   version="1.1"
   id="svg1422"
   xml:space="preserve"
   xmlns="http://www.w3.org/2000/svg"
   xmlns:svg="http://www.w3.org/2000/svg"><defs
     id="defs1419" /><g
     id="layer2"
     transform="translate(4.837903,0.69252664)"><path
       style="display:inline;opacity:1;fill:#c44f57;fill-opacity:1;stroke:none;stroke-width:2.646;stroke-linecap:round;stroke-linejoin:round;paint-order:fill markers stroke"
       d="m 98.134295,26.239884 9.110605,6.875796 10.75964,12.20643 4.86791,14.203556 0.41021,13.993738 -4.52508,17.160754 -14.81824,16.556862 -19.222331,5.86063 -18.262076,-1.19669 -6.076854,-3.85892 -9.07333,4.43566 -13.02867,1.77284 L 18.458505,107.24179 7.6550588,96.302554 -0.25825919,80.67035 -1.7992872,67.16479 -1.2237562,54.87554 10.723006,36.464364 24.902827,25.44592 l 14.592764,2.626104 7.986944,0.291892 -2.826314,4.627664 -8.890274,9.572932 -2.95367,8.773898 7.469376,-2.602236 15.262556,-12.24191 1.236366,13.884518 3.564304,8.586512 4.044394,-6.429178 2.18711,-15.648628 18.380306,13.641656 4.324118,0.962184 -3.88893,-10.02117 -11.890518,-12.5867 h 4.787286 l 10.223462,-1.072534 8.777072,-2.490416 z"
       id="path3497"
       transform="translate(-0.6680903,7.5956542)" /><path
       style="display:inline;opacity:1;fill:#329675;fill-opacity:1;stroke:none;stroke-width:2.646;stroke-linecap:round;stroke-linejoin:round;paint-order:fill markers stroke"
       d="m 61.25257,59.329381 c 1.25032,-3.40904 2.7769,-6.7511 3.854972,-10.201904 0.443718,-4.219054 0.887436,-8.43811 1.331154,-12.657164 5.155664,3.932018 10.214728,8.012862 15.43046,11.852334 2.302442,1.237168 4.604884,2.474334 6.907326,3.7115 -0.361126,-2.195826 -0.44281,-4.514978 -0.976454,-6.63467 -4.783558,-5.664842 -9.567116,-11.329682 -14.350674,-16.994524 3.48215,-0.03878 7.059942,0.683214 10.487598,0.0092 5.627448,-1.573676 11.257684,-3.137348 16.887258,-4.703392 -4.911168,-1.321782 -9.80425,-2.830866 -14.726648,-4.036326 -7.094792,0.565388 -14.189584,1.130778 -21.284376,1.696166 0.452854,-5.357172 1.128028,-10.716475 1.442012,-16.0723139 -0.226348,-1.98043 -0.452696,-3.96086 -0.679044,-5.94128995 -2.778352,0.102794 -5.556706,0.20559 -8.335058,0.308384 -0.542342,2.36919395 -1.502876,4.71008095 -1.781492,7.09712595 0.647438,4.8749559 1.294878,9.7499099 1.942316,14.6248659 -6.513378,-0.53844 -13.034812,-1.227356 -19.543152,-1.671698 -5.733202,1.13334 -11.466404,2.266678 -17.199606,3.400018 4.55768,1.344042 9.071952,2.909406 13.656578,4.116066 4.516564,0.401922 9.033128,0.803844 13.549692,1.205766 -4.298016,5.594822 -8.760898,11.102506 -12.955948,16.751748 -0.595968,1.855128 -1.191934,3.710258 -1.787902,5.565388 2.135638,-0.730696 4.632922,-0.697652 6.341526,-2.330178 5.294852,-3.865894 10.589704,-7.73179 15.884556,-11.597684 0.735526,4.928092 1.310814,9.905222 2.146262,14.802732 1.252882,2.566584 2.505762,5.133168 3.758644,7.699752 z"
       id="path2557"
       transform="translate(-0.6680903,7.5956542)" /><path
       style="display:inline;opacity:1;mix-blend-mode:normal;fill:#8e3449;fill-opacity:1;stroke:none;stroke-width:2.646;stroke-linecap:round;stroke-linejoin:round;paint-order:fill markers stroke"
       d="m 48.862798,112.64951 c 0,0 -33.661919,-15.843659 -33.661919,-44.237281 0,-28.774518 21.101241,-39.466614 21.101241,-39.466614 l -12.205258,-4.121924 -5.307392,4.089924 -8.009549,6.886312 -6.0495602,9.985992 -6.056948,9.91698 -0.877972,9.501028 1.041129,11.567642 5.644548,16.48261 8.2211722,8.901471 9.128776,6.48028 15.761654,4.56188 z"
       id="path4189"
       transform="translate(-0.6680903,7.5956542)" /><path
       style="display:inline;opacity:1;mix-blend-mode:normal;fill:#246262;fill-opacity:1;stroke:none;stroke-width:2.646;stroke-linecap:round;stroke-linejoin:round;paint-order:fill markers stroke"
       d="m 60.732552,26.705117 c 0,0 -3.095358,-21.2717309 -0.51753,-26.50461885 0.870324,-1.76672205 -4.178862,-0.09838 -4.178862,-0.09838 l 0.404056,16.09273885 1.911218,10.08518 z"
       id="path4807"
       transform="translate(-0.6680903,7.5956542)" /><path
       id="path1892"
       style="display:inline;opacity:1;fill:none;stroke:#241f31;stroke-width:2.646;stroke-linecap:round;stroke-linejoin:round;paint-order:fill markers stroke"
       d="m 60.477895,107.40219 c -3.872188,5.47586 -12.291356,5.31 -17.909274,6.24632 C 11.147068,112.08115 -5.0262002,86.517518 -1.9407242,59.710348 0.71375781,47.538438 13.995386,28.575484 25.567285,25.44286 m 34.95528,81.99381 c 3.872188,5.47586 12.77427,5.23942 18.392188,6.17574 C 110.3363,112.04505 126.50957,86.481416 123.4241,59.674246 120.76961,47.502336 107.00957,28.463228 95.437669,25.330604"
       transform="translate(-0.6680903,7.5956542)" /><path
       id="path1794-7"
       style="display:inline;opacity:1;fill:none;stroke:#241f31;stroke-width:2.646;stroke-linecap:round;stroke-linejoin:round;paint-order:fill markers stroke"
       d="m 60.729039,59.389974 c 4.032124,-5.78432 5.257472,-15.948498 5.257472,-23.181428 5.868322,4.840878 14.881542,13.903602 22.915388,15.373152 -1.816886,-12.84773 -18.192454,-22.113534 -15.588982,-23.643922 8.64207,2.89081 22.7262,-3.355454 28.237773,-4.545438 0.85536,0 -16.024233,-6.752244 -37.183919,-2.01334 m -4.16117,-21.77049085 c 1.910418,0.141366 4.410862,-0.33497 5.288774,0.663915 1.35713,1.54413695 -0.85269,24.81098785 -3.23691,26.16885385 -0.530092,0.301898 -0.83562,0.339312 -1.401208,0.309862 m 0.356912,-27.10652985 c -1.915942,0.02807 -4.405488,-0.34758 -5.288774,0.663915 -1.352192,1.54846395 0.85269,24.81098885 3.23691,26.16885485 0.530092,0.301898 0.83562,0.339312 1.401208,0.309862 m 0.19182,32.638836 C 56.722209,53.641756 55.496861,43.477578 55.496861,36.244648 49.628539,41.085526 40.615319,50.14825 32.581473,51.6178 34.398359,38.77007 50.773927,29.504266 48.170455,27.973878 c -8.64207,2.89081 -22.7262,-3.355454 -28.23777,-4.545438 -0.855364,0 16.02423,-6.752244 37.183916,-2.01334"
       transform="translate(-0.6680903,7.5956542)" /><path
       style="opacity:1;fill:#241f31;fill-opacity:1;stroke:none;stroke-width:2.646;stroke-linecap:round;stroke-linejoin:round;paint-order:fill markers stroke"
       id="path9440"
       d="m 66.911382,72.616699 a 6.1696978,6.1696978 0 0 1 -6.162414,6.169694 6.1696978,6.1696978 0 0 1 -6.176965,-6.155126 6.1696978,6.1696978 0 0 1 6.14783,-6.184227 6.1696978,6.1696978 0 0 1 6.19148,6.140524 l -6.169629,0.02913 z"
       transform="translate(-0.6680903,7.5956542)" /><path
       style="opacity:1;fill:none;fill-opacity:1;stroke:#241f31;stroke-width:3.646;stroke-linecap:round;stroke-linejoin:round;stroke-dasharray:none;stroke-opacity:1;paint-order:fill markers stroke"
       d="M 66.910836,66.446131 81.101144,52.255823 Z"
       id="path10006"
       transform="translate(-0.6680903,7.5956542)" /><path
       style="fill:none;fill-opacity:1;stroke:#241f31;stroke-width:3.646;stroke-linecap:round;stroke-linejoin:round;stroke-dasharray:none;stroke-opacity:1;paint-order:fill markers stroke"
       d="M 62.283126,100.87806 60.53028,80.886631 Z"
       id="path10006-5"
       transform="translate(-0.6680903,7.5956542)" /></g></svg>
